<svg aria-hidden="true" style="width:0;height:0;position:absolute;overflow:hidden" xmlns="http://www.w3.org/2000/svg"><defs><symbol id="icon-heart" viewBox="0 0 34 32"><path fill="#ff6b08" style="fill:var(--color1,#ff6b08)" d="m17.231 31.705-2.412-2.412C5.859 21.367.001 16.025.001 9.478.001 4.136 4.136.001 9.478.001c2.929 0 5.858 1.378 7.754 3.618 1.895-2.24 4.825-3.618 7.754-3.618 5.342 0 9.477 4.135 9.477 9.477 0 6.548-5.858 11.889-14.818 19.815l-2.412 2.412z"/></symbol><symbol id="icon-facebook" viewBox="0 0 32 32"><path fill="#1877f2" style="fill:var(--color2,#1877f2)" d="M31.997 15.999C31.997 7.163 24.834 0 15.998 0S-.001 7.163-.001 15.999c0 7.985 5.851 14.604 13.499 15.804v-11.18H9.436v-4.625h4.062v-3.525c0-4.01 2.389-6.225 6.043-6.225 1.75 0 3.581.313 3.581.313v3.937h-2.017c-1.987 0-2.607 1.233-2.607 2.498v3.001h4.437l-.709 4.625h-3.728v11.18c7.649-1.2 13.499-7.819 13.499-15.804z"/></symbol><symbol id="icon-telegram" viewBox="0 0 32 32"><path fill="#2ca5e0" style="fill:var(--color3,#2ca5e0)" d="m31.88 5.053-4.813 22.733c-.333 1.613-1.307 2-2.667 1.253l-7.333-5.427-3.547 3.427c-.4.4-.733.747-1.467.747-.96 0-.8-.36-1.12-1.267L8.4 18.266l-7.267-2.267c-1.573-.467-1.587-1.547.347-2.333L29.827 2.733c1.293-.573 2.533.32 2.053 2.32z"/></symbol><symbol id="icon-youtube" viewBox="0 0 32 32"><path fill="red" style="fill:var(--color4,red)" d="M31.327 8.273a4.026 4.026 0 0 0-2.756-2.777l-.028-.007c-2.493-.668-12.528-.668-12.528-.668s-10.009-.013-12.528.668A4.026 4.026 0 0 0 .71 8.245l-.007.028C.26 10.554.007 13.176.007 15.858v.163-.008.126c0 2.682.253 5.304.737 7.845l-.041-.26a4.026 4.026 0 0 0 2.756 2.777l.028.007c2.491.669 12.528.669 12.528.669s10.008 0 12.528-.669a4.026 4.026 0 0 0 2.777-2.756l.007-.028c.425-2.233.668-4.803.668-7.429l-.001-.297v.015l.001-.31c0-2.626-.243-5.196-.708-7.687l.04.258zM12.812 20.801V11.21l8.352 4.803z"/></symbol><symbol id="icon-app-store" viewBox="0 0 32 32"><path d="M23.046 3.247H8.954A5.754 5.754 0 0 0 3.2 9.001V23.04a5.754 5.754 0 0 0 5.754 5.754h14.092A5.755 5.755 0 0 0 28.8 23.04V9.001a5.754 5.754 0 0 0-5.754-5.754zM10.349 23.523a1.278 1.278 0 0 1-1.752.458 1.28 1.28 0 0 1-.457-1.751l.186-.318c.33-.104.676-.16 1.033-.15h.003a2.135 2.135 0 0 1 1.577.753l-.591 1.009zm7.195-3.043H7.68a1.28 1.28 0 1 1 0-2.56h2.986l3.754-6.406-1.159-1.978a1.28 1.28 0 1 1 2.209-1.295l.434.74.434-.74a1.28 1.28 0 0 1 2.209 1.295l-4.913 8.385h2.675c.4.266.744.618.991 1.05l.002.003c.282.49.344 1.02.243 1.508zm6.776 0h-1.679l1.025 1.749a1.279 1.279 0 1 1-2.209 1.293l-3.937-6.718a3.195 3.195 0 0 1 .07-3.164l.529-.879 3.021 5.158h3.179a1.28 1.28 0 1 1 0 2.56z"/></symbol><symbol id="icon-google-play" viewBox="0 0 32 32"><path d="M17.253 16 4.873 28.38a2.18 2.18 0 0 1-.207-.947V4.566c0-.333.067-.653.207-.947l12.38 12.38zM18.667 17.413l4.14 4.14-14.7 7.933a2.33 2.33 0 0 1-1.714.2l12.273-12.273zM18.667 14.587 6.4 2.32a2.285 2.285 0 0 1 1.707.193l14.7 7.933-4.14 4.14zM30.527 16c0 .86-.473 1.647-1.227 2.053l-4.653 2.513-4.567-4.567 4.567-4.567 4.653 2.513a2.335 2.335 0 0 1 1.227 2.053z"/></symbol></defs></svg>