<svg aria-hidden="true" style="width:0;height:0;position:absolute;overflow:hidden" xmlns="http://www.w3.org/2000/svg"><defs><symbol id="icon-film" viewBox="0 0 32 32"><path fill="none" stroke="#818181" style="stroke:var(--color1,#818181)" stroke-linejoin="round" stroke-linecap="round" stroke-width="2.667" d="M26.427 3.606H5.574c-1.605 0-2.907 1.239-2.907 2.768V26.23c0 1.529 1.301 2.768 2.907 2.768h20.853c1.605 0 2.907-1.239 2.907-2.768V6.374c0-1.529-1.301-2.768-2.907-2.768zM9.333 3.606v25.391M22.667 3.606v25.391M2.667 16.301h26.667M2.667 9.954h6.667M2.667 22.649h6.667M22.667 22.649h6.667M22.667 9.954h6.667"/></symbol><symbol id="icon-search" viewBox="0 0 32 32"><path d="m31.008 27.231-7.58-6.447c-.784-.705-1.622-1.029-2.299-.998a11.954 11.954 0 0 0 2.87-7.787c0-6.627-5.373-12-12-12s-12 5.373-12 12 5.373 12 12 12c2.972 0 5.691-1.081 7.787-2.87-.031.677.293 1.515.998 2.299l6.447 7.58c1.104 1.226 2.907 1.33 4.007.23s.997-2.903-.23-4.007zM12 20a8 8 0 1 1 0-16 8 8 0 0 1 0 16z"/></symbol><symbol id="icon-arrow-right" viewBox="0 0 32 32"><path d="m19.414 27.414 10-10a2 2 0 0 0 0-2.828l-10-10a2 2 0 1 0-2.828 2.828L23.172 14H4a2 2 0 1 0 0 4h19.172l-6.586 6.586c-.39.39-.586.902-.586 1.414s.195 1.024.586 1.414a2 2 0 0 0 2.828 0z"/></symbol><symbol id="icon-arrow-left" viewBox="0 0 32 32"><path d="m12.586 27.414-10-10a2 2 0 0 1 0-2.828l10-10a2 2 0 1 1 2.828 2.828L8.828 14H28a2 2 0 1 1 0 4H8.828l6.586 6.586c.39.39.586.902.586 1.414s-.195 1.024-.586 1.414a2 2 0 0 1-2.828 0z"/></symbol><symbol id="icon-heart" viewBox="0 0 34 32"><path fill="#FF6B01" style="fill:var(--color1,#ff6b01)" d="m17.231 31.705-2.412-2.412C5.859 21.367.001 16.025.001 9.478.001 4.136 4.136.001 9.478.001c2.929 0 5.858 1.378 7.754 3.618 1.895-2.24 4.825-3.618 7.754-3.618 5.342 0 9.477 4.135 9.477 9.477 0 6.548-5.858 11.889-14.818 19.815l-2.412 2.412z"/></symbol><symbol id="icon-facebook" viewBox="0 0 32 32"><path d="M29 0H3C1.35 0 0 1.35 0 3v26c0 1.65 1.35 3 3 3h13V18h-4v-4h4v-2c0-3.306 2.694-6 6-6h4v4h-4c-1.1 0-2 .9-2 2v2h6l-1 4h-5v14h9c1.65 0 3-1.35 3-3V3c0-1.65-1.35-3-3-3z"/></symbol><symbol id="icon-telegram" viewBox="0 0 32 32"><path d="M16 0C7.162 0 0 7.162 0 16s7.162 16 16 16 16-7.163 16-16S24.837 0 16 0zm7.863 10.969-2.625 12.369c-.181.881-.712 1.087-1.45.681l-4-2.956-1.919 1.869c-.225.219-.4.4-.8.4-.519 0-.431-.194-.606-.688L11.1 18.169l-3.956-1.231c-.856-.262-.862-.85.194-1.269l15.412-5.95c.7-.319 1.381.169 1.113 1.25z"/></symbol><symbol id="icon-youtube" viewBox="0 0 32 32"><path d="M31.681 9.6s-.313-2.206-1.275-3.175C29.187 5.15 27.825 5.144 27.2 5.069c-4.475-.325-11.194-.325-11.194-.325h-.012s-6.719 0-11.194.325c-.625.075-1.987.081-3.206 1.356C.631 7.394.325 9.6.325 9.6s-.319 2.588-.319 5.181v2.425c0 2.587.319 5.181.319 5.181s.313 2.206 1.269 3.175c1.219 1.275 2.819 1.231 3.531 1.369 2.563.244 10.881.319 10.881.319s6.725-.012 11.2-.331c.625-.075 1.988-.081 3.206-1.356.962-.969 1.275-3.175 1.275-3.175s.319-2.587.319-5.181v-2.425c-.006-2.588-.325-5.181-.325-5.181zM12.694 20.15v-8.994l8.644 4.513-8.644 4.481z"/></symbol><symbol id="icon-app-store" viewBox="0 0 32 32"><path d="M23.046 3.247H8.954A5.754 5.754 0 0 0 3.2 9.001V23.04a5.754 5.754 0 0 0 5.754 5.754h14.092A5.755 5.755 0 0 0 28.8 23.04V9.001a5.754 5.754 0 0 0-5.754-5.754zM10.349 23.523a1.278 1.278 0 0 1-1.752.458 1.28 1.28 0 0 1-.457-1.751l.186-.318c.33-.104.676-.16 1.033-.15h.003a2.135 2.135 0 0 1 1.577.753l-.591 1.009zm7.195-3.043H7.68a1.28 1.28 0 1 1 0-2.56h2.986l3.754-6.406-1.159-1.978a1.28 1.28 0 1 1 2.209-1.295l.434.74.434-.74a1.28 1.28 0 0 1 2.209 1.295l-4.913 8.385h2.675c.4.266.744.618.991 1.05l.002.003c.282.49.344 1.02.243 1.508zm6.776 0h-1.679l1.025 1.749a1.279 1.279 0 1 1-2.209 1.293l-3.937-6.718a3.195 3.195 0 0 1 .07-3.164l.529-.879 3.021 5.158h3.179a1.28 1.28 0 1 1 0 2.56z"/></symbol><symbol id="icon-google-play" viewBox="0 0 32 32"><path d="M17.253 16 4.873 28.38a2.18 2.18 0 0 1-.207-.947V4.566c0-.333.067-.653.207-.947l12.38 12.38zM18.667 17.413l4.14 4.14-14.7 7.933a2.33 2.33 0 0 1-1.714.2l12.273-12.273zM18.667 14.587 6.4 2.32a2.285 2.285 0 0 1 1.707.193l14.7 7.933-4.14 4.14zM30.527 16c0 .86-.473 1.647-1.227 2.053l-4.653 2.513-4.567-4.567 4.567-4.567 4.653 2.513a2.335 2.335 0 0 1 1.227 2.053z"/></symbol></defs></svg>