<svg aria-hidden="true" style="position: absolute; width: 0; height: 0; overflow: hidden;" version="1.1" xmlns="http://www.w3.org/2000/svg" xmlns:xlink="http://www.w3.org/1999/xlink">
<defs>
<symbol id="icon-heart" viewBox="0 0 34 32">
<path fill="#ff6b08" style="fill: var(--color1, #ff6b08)" d="M17.231 31.705l-2.412-2.412c-8.96-7.926-14.818-13.268-14.818-19.815 0-5.342 4.135-9.477 9.477-9.477 2.929 0 5.858 1.378 7.754 3.618 1.895-2.24 4.825-3.618 7.754-3.618 5.342 0 9.477 4.135 9.477 9.477 0 6.548-5.858 11.889-14.818 19.815l-2.412 2.412z"></path>
</symbol>
<symbol id="icon-facebook" viewBox="0 0 32 32">
<path fill="#1877f2" style="fill: var(--color2, #1877f2)" d="M31.997 15.999c0-8.836-7.163-15.999-15.999-15.999s-15.999 7.163-15.999 15.999c0 7.985 5.851 14.604 13.499 15.804v-11.18h-4.062v-4.625h4.062v-3.525c0-4.010 2.389-6.225 6.043-6.225 1.75 0 3.581 0.313 3.581 0.313v3.937h-2.017c-1.987 0-2.607 1.233-2.607 2.498v3.001h4.437l-0.709 4.625h-3.728v11.18c7.649-1.2 13.499-7.819 13.499-15.804z"></path>
</symbol>
<symbol id="icon-telegram" viewBox="0 0 32 32">
<path fill="#2ca5e0" style="fill: var(--color3, #2ca5e0)" d="M31.88 5.053l-4.813 22.733c-0.333 1.613-1.307 2-2.667 1.253l-7.333-5.427-3.547 3.427c-0.4 0.4-0.733 0.747-1.467 0.747-0.96 0-0.8-0.36-1.12-1.267l-2.533-8.253-7.267-2.267c-1.573-0.467-1.587-1.547 0.347-2.333l28.347-10.933c1.293-0.573 2.533 0.32 2.053 2.32z"></path>
</symbol>
<symbol id="icon-youtube" viewBox="0 0 32 32">
<path fill="#f00" style="fill: var(--color4, #f00)" d="M31.327 8.273c-0.386-1.353-1.431-2.398-2.756-2.777l-0.028-0.007c-2.493-0.668-12.528-0.668-12.528-0.668s-10.009-0.013-12.528 0.668c-1.353 0.386-2.398 1.431-2.777 2.756l-0.007 0.028c-0.443 2.281-0.696 4.903-0.696 7.585 0 0.054 0 0.109 0 0.163l-0-0.008c-0 0.037-0 0.082-0 0.126 0 2.682 0.253 5.304 0.737 7.845l-0.041-0.26c0.386 1.353 1.431 2.398 2.756 2.777l0.028 0.007c2.491 0.669 12.528 0.669 12.528 0.669s10.008 0 12.528-0.669c1.353-0.386 2.398-1.431 2.777-2.756l0.007-0.028c0.425-2.233 0.668-4.803 0.668-7.429 0-0.099-0-0.198-0.001-0.297l0 0.015c0.001-0.092 0.001-0.201 0.001-0.31 0-2.626-0.243-5.196-0.708-7.687l0.040 0.258zM12.812 20.801v-9.591l8.352 4.803z"></path>
</symbol>
<symbol id="icon-app-store" viewBox="0 0 32 32">
<path d="M23.046 3.247h-14.092c-3.178 0-5.754 2.576-5.754 5.754v14.039c0 3.178 2.576 5.754 5.754 5.754h14.092c3.178-0.001 5.754-2.577 5.754-5.754v-14.039c0-3.178-2.576-5.754-5.754-5.754zM10.349 23.523c-0.238 0.407-0.666 0.633-1.106 0.633-0.22 0-0.442-0.056-0.646-0.175-0.61-0.358-0.815-1.142-0.457-1.751l0.186-0.318c0.33-0.104 0.676-0.16 1.033-0.15h0.003c0.655 0.019 1.203 0.316 1.577 0.753l-0.591 1.009zM17.544 20.48h-9.864c-0.707 0-1.28-0.573-1.28-1.28s0.573-1.28 1.28-1.28h2.986l3.754-6.406-1.159-1.978c-0.358-0.61-0.153-1.394 0.457-1.752s1.394-0.153 1.752 0.457l0.434 0.74 0.434-0.74c0.357-0.61 1.141-0.814 1.752-0.457s0.815 1.142 0.457 1.752l-4.913 8.385h2.675c0.4 0.266 0.744 0.618 0.991 1.050l0.002 0.003c0.282 0.49 0.344 1.020 0.243 1.508zM24.32 20.48h-1.679l1.025 1.749c0.358 0.609 0.153 1.394-0.457 1.751-0.204 0.12-0.426 0.175-0.646 0.175-0.44 0-0.867-0.227-1.106-0.633l-3.937-6.718c-0.534-0.991-0.514-2.193 0.070-3.164l0.529-0.879 3.021 5.158h3.179c0.707 0 1.28 0.573 1.28 1.28s-0.573 1.28-1.28 1.28z"></path>
</symbol>
<symbol id="icon-google-play" viewBox="0 0 32 32">
<path d="M17.253 16l-12.38 12.38c-0.14-0.293-0.207-0.613-0.207-0.947v-22.867c0-0.333 0.067-0.653 0.207-0.947l12.38 12.38z"></path>
<path d="M18.667 17.413l4.14 4.14-14.7 7.933c-0.347 0.187-0.727 0.28-1.107 0.28-0.207 0-0.407-0.027-0.607-0.080l12.273-12.273z"></path>
<path d="M18.667 14.587l-12.267-12.267c0.567-0.16 1.173-0.093 1.707 0.193l14.7 7.933-4.14 4.14z"></path>
<path d="M30.527 16c0 0.86-0.473 1.647-1.227 2.053l-4.653 2.513-4.567-4.567 4.567-4.567 4.653 2.513c0.753 0.407 1.227 1.193 1.227 2.053z"></path>
</symbol>
</defs>
</svg>
